<?xml version="1.0" encoding="UTF-8"?>
<svg width="300px" height="300px" viewBox="0 0 300 300" version="1.1" xmlns="http://www.w3.org/2000/svg" xmlns:xlink="http://www.w3.org/1999/xlink">
    <!-- Generator: Sketch 51.3 (57544) - http://www.bohemiancoding.com/sketch -->
    <title>Group 2</title>
    <desc>Created with Sketch.</desc>
    <defs></defs>
    <g id="primary-brands" stroke="none" stroke-width="1" fill="none" fill-rule="evenodd">
        <g id="Group-2" fill-rule="nonzero">
            <rect id="Rectangle" fill="#FFFFFF" x="0" y="0" width="300" height="300" rx="50"></rect>
            <path d="M270.925163,295.424055 L264.823529,259.976471 C259.725465,262.133344 254.137285,263.701956 248.058824,264.682353 C241.980362,265.66275 236.294144,266.152941 231,266.152941 C216.097965,266.152941 205.656893,262.32945 199.676471,254.682353 C193.696049,247.035256 190.705882,236.25105 190.705882,222.329412 C190.705882,209.192091 193.892125,198.603962 200.264706,190.564706 C206.637287,182.52545 216.294053,178.505882 229.235294,178.505882 C235.313756,178.505882 240.803897,179.094112 245.705882,180.270588 C250.607868,181.447065 255.117626,182.8196 259.235294,184.388235 L268.352941,149.388235 C261.882321,146.643124 255.215721,144.535301 248.352941,143.064706 C241.490162,141.59411 233.941218,140.858824 225.705882,140.858824 C213.1568,140.858824 201.980441,143.015665 192.176471,147.329412 C182.3725,151.643159 174.03925,157.476434 167.176471,164.829412 C160.313691,172.18239 155.068646,180.809754 151.441176,190.711765 C147.813707,200.613775 146,211.152885 146,222.329412 C146,233.898097 147.519593,244.633284 150.558824,254.535294 C153.598054,264.437304 158.401928,273.01565 164.970588,280.270588 C171.539249,287.525526 179.921518,293.260763 190.117647,297.476471 C192.40976,298.424171 194.800954,299.265347 197.291234,300 L50,300 C22.3857625,300 -3.7236586e-15,277.614237 -7.10542736e-15,250 L-1.42108547e-14,50 C-1.75926235e-14,22.3857625 22.3857625,-2.03277422e-15 50,-7.10542736e-15 L250,-1.42108547e-14 C277.614237,-1.92835078e-14 300,22.3857625 300,50 L300,250 C300,270.143216 288.088583,287.504372 270.925163,295.424055 Z" id="Combined-Shape" fill="#F0B429"></path>
        </g>
    </g>
</svg>