<?xml version="1.0" encoding="UTF-8"?>
<svg width="79px" height="79px" viewBox="0 0 79 79" version="1.1" xmlns="http://www.w3.org/2000/svg" xmlns:xlink="http://www.w3.org/1999/xlink">
    <!-- Generator: Sketch 51.3 (57544) - http://www.bohemiancoding.com/sketch -->
    <title>Combined Shape Copy</title>
    <desc>Created with Sketch.</desc>
    <defs></defs>
    <g id="primary-brands" stroke="none" stroke-width="1" fill="none" fill-rule="evenodd">
        <path d="M60.5078929,79 C61.3351282,78.8561247 62.1277675,78.6831144 62.8858131,78.4809689 C65.5155841,77.7796966 67.553626,76.9907772 69,76.1141869 L66.1730104,67.8961938 C65.6032267,68.1591709 64.9677082,68.4440584 64.266436,68.7508651 C63.5651637,69.0576717 62.7543299,69.331602 61.83391,69.5726644 C60.9134902,69.8137267 59.8615976,70.0219138 58.6782007,70.1972318 C57.4948038,70.3725499 56.1580236,70.4602076 54.6678201,70.4602076 C52.3010262,70.4602076 50.2848988,70.0767051 48.6193772,69.3096886 C46.9538556,68.5426721 45.6061182,67.5017367 44.5761246,66.1868512 C43.546131,64.8719657 42.8010404,63.3050841 42.3408304,61.4861592 C41.8806205,59.6672343 41.650519,57.7058929 41.650519,55.6020761 C41.650519,52.9723052 42.0011499,50.7370334 42.7024221,48.8961938 C43.4036944,47.0553541 44.3350576,45.5542157 45.4965398,44.3927336 C46.658022,43.2312514 47.9948021,42.3875459 49.5069204,41.8615917 C51.0190387,41.3356375 52.564006,41.0726644 54.1418685,41.0726644 C56.5086624,41.0726644 58.6234048,41.3356375 60.4861592,41.8615917 C62.3489136,42.3875459 63.9815385,43.0230643 65.384083,43.7681661 L68.3425606,35.4844291 C67.9919244,35.2652815 67.4221493,34.9584795 66.633218,34.5640138 C65.8442867,34.1695482 64.8581374,33.7860457 63.6747405,33.4134948 C62.4913436,33.0409439 61.1107345,32.7122275 59.532872,32.4273356 C57.9550094,32.1424438 56.2018551,32 54.2733564,32 C50.9423132,32 47.8523787,32.5259463 45.0034602,33.5778547 C42.1545417,34.629763 39.7001256,36.1747303 37.6401384,38.2128028 C35.5801512,40.2508752 33.9584834,42.7491202 32.7750865,45.7076125 C31.5916896,48.6661048 31,52.0299696 31,55.799308 C31,63.3818142 32.939427,69.2329667 36.8183391,73.3529412 C39.5582319,76.2631098 43.1782792,78.1454554 47.6785409,79 L4,79 C1.790861,79 2.705415e-16,77.209139 0,75 L0,4 C-2.705415e-16,1.790861 1.790861,4.05812251e-16 4,0 L75,0 C77.209139,-4.05812251e-16 79,1.790861 79,4 L79,75 C79,77.209139 77.209139,79 75,79 L60.5078929,79 Z" id="Combined-Shape-Copy" fill="#FFFFFF" fill-rule="nonzero"></path>
    </g>
</svg>